# Tiled2Unity generated file. Do not modify by hand.
# Wavefront file for 'house_outside_mesh_0002.obj'

# Vertices (Count = 16)
v -96 -160 0
v -112 -160 0
v -112 -144 0
v -96 -144 0
v -112 -192 0
v -128 -192 0
v -128 -176 0
v -112 -176 0
v -80 -192 0
v -96 -192 0
v -96 -176 0
v -80 -176 0
v -96 -208 0
v -112 -208 0
v -112 -192 0
v -96 -192 0

# Texture cooridinates (Count = 12)
vt 0.7902893 0.9695817
vt 0.8068182 0.9695817
vt 0.8068182 1
vt 0.7902893 1
vt 0.7200413 0.9695817
vt 0.7365702 0.9695817
vt 0.7365702 1
vt 0.7200413 1
vt 0.6497934 0.904943
vt 0.6663223 0.904943
vt 0.6663223 0.9353612
vt 0.6497934 0.9353612

# Normal
vn 0 0 -1

# Mesh description
g house_outside_mesh_0002

# Faces
f 1/1/1 2/2/1 3/3/1 4/4/1
f 5/5/1 6/6/1 7/7/1 8/8/1
f 9/5/1 10/6/1 11/7/1 12/8/1
f 13/9/1 14/10/1 15/11/1 16/12/1

